# xmcd CD database file
#
# Track frame offsets:
#	150
#	30625
#	64170
#	92552
#	134827
#	181402
#	231436
#
# Disc length: 3437 seconds
#
# Revision: 0
# Processed by: cddbd v1.5.2PL0 Copyright (c) Steve Scherf et al.
# Submitted via: CDex 1.51
#
DISCID=610d6b07
DTITLE=¼­¿µµµ - Bridge
DYEAR=2008
DGENRE=Jazz
TTITLE0=Manager Craig
TTITLE1=Insomnia
TTITLE2=The Music of Chance
TTITLE3=Miles' Corner
TTITLE4=Blackout
TTITLE5=Sonicedge
TTITLE6=Prayer
EXTD=YEAR: 2008
EXTT0=
EXTT1=
EXTT2=
EXTT3=
EXTT4=
EXTT5=
EXTT6=
PLAYORDER=
